<?xml version="1.0" encoding="utf-8" standalone="no"?>
<!DOCTYPE svg PUBLIC "-//W3C//DTD SVG 1.1//EN"
  "http://www.w3.org/Graphics/SVG/1.1/DTD/svg11.dtd">
<svg xmlns:xlink="http://www.w3.org/1999/xlink" width="576pt" height="432pt" viewBox="0 0 576 432" xmlns="http://www.w3.org/2000/svg" version="1.1">
 <metadata>
  <rdf:RDF xmlns:dc="http://purl.org/dc/elements/1.1/" xmlns:cc="http://creativecommons.org/ns#" xmlns:rdf="http://www.w3.org/1999/02/22-rdf-syntax-ns#">
   <cc:Work>
    <dc:type rdf:resource="http://purl.org/dc/dcmitype/StillImage"/>
    <dc:date>2024-10-06T22:00:58.003285</dc:date>
    <dc:format>image/svg+xml</dc:format>
    <dc:creator>
     <cc:Agent>
      <dc:title>Matplotlib v3.7.2, https://matplotlib.org/</dc:title>
     </cc:Agent>
    </dc:creator>
   </cc:Work>
  </rdf:RDF>
 </metadata>
 <defs>
  <style type="text/css">*{stroke-linejoin: round; stroke-linecap: butt}</style>
 </defs>
 <g id="figure_1">
  <g id="patch_1">
   <path d="M 0 432 
L 576 432 
L 576 0 
L 0 0 
z
" style="fill: #ffffff"/>
  </g>
  <g id="axes_1">
   <g id="patch_2">
    <path d="M 33.64 386.44 
L 565.2 386.44 
L 565.2 32.64 
L 33.64 32.64 
z
" style="fill: #ffffff"/>
   </g>
   <g id="matplotlib.axis_1">
    <g id="xtick_1">
     <g id="line2d_1">
      <defs>
       <path id="md8ef574542" d="M 0 0 
L 0 3.5 
" style="stroke: #000000; stroke-width: 0.8"/>
      </defs>
      <g>
       <use xlink:href="#md8ef574542" x="33.64" y="386.44" style="stroke: #000000; stroke-width: 0.8"/>
      </g>
     </g>
     <g id="text_1">
      <!-- 0 -->
      <g transform="translate(30.45875 401.038437) scale(0.1 -0.1)">
       <defs>
        <path id="DejaVuSans-30" d="M 2034 4250 
Q 1547 4250 1301 3770 
Q 1056 3291 1056 2328 
Q 1056 1369 1301 889 
Q 1547 409 2034 409 
Q 2525 409 2770 889 
Q 3016 1369 3016 2328 
Q 3016 3291 2770 3770 
Q 2525 4250 2034 4250 
z
M 2034 4750 
Q 2819 4750 3233 4129 
Q 3647 3509 3647 2328 
Q 3647 1150 3233 529 
Q 2819 -91 2034 -91 
Q 1250 -91 836 529 
Q 422 1150 422 2328 
Q 422 3509 836 4129 
Q 1250 4750 2034 4750 
z
" transform="scale(0.015625)"/>
       </defs>
       <use xlink:href="#DejaVuSans-30"/>
      </g>
     </g>
    </g>
    <g id="xtick_2">
     <g id="line2d_2">
      <g>
       <use xlink:href="#md8ef574542" x="104.990336" y="386.44" style="stroke: #000000; stroke-width: 0.8"/>
      </g>
     </g>
     <g id="text_2">
      <!-- 20 -->
      <g transform="translate(98.627836 401.038437) scale(0.1 -0.1)">
       <defs>
        <path id="DejaVuSans-32" d="M 1228 531 
L 3431 531 
L 3431 0 
L 469 0 
L 469 531 
Q 828 903 1448 1529 
Q 2069 2156 2228 2338 
Q 2531 2678 2651 2914 
Q 2772 3150 2772 3378 
Q 2772 3750 2511 3984 
Q 2250 4219 1831 4219 
Q 1534 4219 1204 4116 
Q 875 4013 500 3803 
L 500 4441 
Q 881 4594 1212 4672 
Q 1544 4750 1819 4750 
Q 2544 4750 2975 4387 
Q 3406 4025 3406 3419 
Q 3406 3131 3298 2873 
Q 3191 2616 2906 2266 
Q 2828 2175 2409 1742 
Q 1991 1309 1228 531 
z
" transform="scale(0.015625)"/>
       </defs>
       <use xlink:href="#DejaVuSans-32"/>
       <use xlink:href="#DejaVuSans-30" x="63.623047"/>
      </g>
     </g>
    </g>
    <g id="xtick_3">
     <g id="line2d_3">
      <g>
       <use xlink:href="#md8ef574542" x="176.340671" y="386.44" style="stroke: #000000; stroke-width: 0.8"/>
      </g>
     </g>
     <g id="text_3">
      <!-- 40 -->
      <g transform="translate(169.978171 401.038437) scale(0.1 -0.1)">
       <defs>
        <path id="DejaVuSans-34" d="M 2419 4116 
L 825 1625 
L 2419 1625 
L 2419 4116 
z
M 2253 4666 
L 3047 4666 
L 3047 1625 
L 3713 1625 
L 3713 1100 
L 3047 1100 
L 3047 0 
L 2419 0 
L 2419 1100 
L 313 1100 
L 313 1709 
L 2253 4666 
z
" transform="scale(0.015625)"/>
       </defs>
       <use xlink:href="#DejaVuSans-34"/>
       <use xlink:href="#DejaVuSans-30" x="63.623047"/>
      </g>
     </g>
    </g>
    <g id="xtick_4">
     <g id="line2d_4">
      <g>
       <use xlink:href="#md8ef574542" x="247.691007" y="386.44" style="stroke: #000000; stroke-width: 0.8"/>
      </g>
     </g>
     <g id="text_4">
      <!-- 60 -->
      <g transform="translate(241.328507 401.038437) scale(0.1 -0.1)">
       <defs>
        <path id="DejaVuSans-36" d="M 2113 2584 
Q 1688 2584 1439 2293 
Q 1191 2003 1191 1497 
Q 1191 994 1439 701 
Q 1688 409 2113 409 
Q 2538 409 2786 701 
Q 3034 994 3034 1497 
Q 3034 2003 2786 2293 
Q 2538 2584 2113 2584 
z
M 3366 4563 
L 3366 3988 
Q 3128 4100 2886 4159 
Q 2644 4219 2406 4219 
Q 1781 4219 1451 3797 
Q 1122 3375 1075 2522 
Q 1259 2794 1537 2939 
Q 1816 3084 2150 3084 
Q 2853 3084 3261 2657 
Q 3669 2231 3669 1497 
Q 3669 778 3244 343 
Q 2819 -91 2113 -91 
Q 1303 -91 875 529 
Q 447 1150 447 2328 
Q 447 3434 972 4092 
Q 1497 4750 2381 4750 
Q 2619 4750 2861 4703 
Q 3103 4656 3366 4563 
z
" transform="scale(0.015625)"/>
       </defs>
       <use xlink:href="#DejaVuSans-36"/>
       <use xlink:href="#DejaVuSans-30" x="63.623047"/>
      </g>
     </g>
    </g>
    <g id="xtick_5">
     <g id="line2d_5">
      <g>
       <use xlink:href="#md8ef574542" x="319.041342" y="386.44" style="stroke: #000000; stroke-width: 0.8"/>
      </g>
     </g>
     <g id="text_5">
      <!-- 80 -->
      <g transform="translate(312.678842 401.038437) scale(0.1 -0.1)">
       <defs>
        <path id="DejaVuSans-38" d="M 2034 2216 
Q 1584 2216 1326 1975 
Q 1069 1734 1069 1313 
Q 1069 891 1326 650 
Q 1584 409 2034 409 
Q 2484 409 2743 651 
Q 3003 894 3003 1313 
Q 3003 1734 2745 1975 
Q 2488 2216 2034 2216 
z
M 1403 2484 
Q 997 2584 770 2862 
Q 544 3141 544 3541 
Q 544 4100 942 4425 
Q 1341 4750 2034 4750 
Q 2731 4750 3128 4425 
Q 3525 4100 3525 3541 
Q 3525 3141 3298 2862 
Q 3072 2584 2669 2484 
Q 3125 2378 3379 2068 
Q 3634 1759 3634 1313 
Q 3634 634 3220 271 
Q 2806 -91 2034 -91 
Q 1263 -91 848 271 
Q 434 634 434 1313 
Q 434 1759 690 2068 
Q 947 2378 1403 2484 
z
M 1172 3481 
Q 1172 3119 1398 2916 
Q 1625 2713 2034 2713 
Q 2441 2713 2670 2916 
Q 2900 3119 2900 3481 
Q 2900 3844 2670 4047 
Q 2441 4250 2034 4250 
Q 1625 4250 1398 4047 
Q 1172 3844 1172 3481 
z
" transform="scale(0.015625)"/>
       </defs>
       <use xlink:href="#DejaVuSans-38"/>
       <use xlink:href="#DejaVuSans-30" x="63.623047"/>
      </g>
     </g>
    </g>
    <g id="xtick_6">
     <g id="line2d_6">
      <g>
       <use xlink:href="#md8ef574542" x="390.391678" y="386.44" style="stroke: #000000; stroke-width: 0.8"/>
      </g>
     </g>
     <g id="text_6">
      <!-- 100 -->
      <g transform="translate(380.847928 401.038437) scale(0.1 -0.1)">
       <defs>
        <path id="DejaVuSans-31" d="M 794 531 
L 1825 531 
L 1825 4091 
L 703 3866 
L 703 4441 
L 1819 4666 
L 2450 4666 
L 2450 531 
L 3481 531 
L 3481 0 
L 794 0 
L 794 531 
z
" transform="scale(0.015625)"/>
       </defs>
       <use xlink:href="#DejaVuSans-31"/>
       <use xlink:href="#DejaVuSans-30" x="63.623047"/>
       <use xlink:href="#DejaVuSans-30" x="127.246094"/>
      </g>
     </g>
    </g>
    <g id="xtick_7">
     <g id="line2d_7">
      <g>
       <use xlink:href="#md8ef574542" x="461.742013" y="386.44" style="stroke: #000000; stroke-width: 0.8"/>
      </g>
     </g>
     <g id="text_7">
      <!-- 120 -->
      <g transform="translate(452.198263 401.038437) scale(0.1 -0.1)">
       <use xlink:href="#DejaVuSans-31"/>
       <use xlink:href="#DejaVuSans-32" x="63.623047"/>
       <use xlink:href="#DejaVuSans-30" x="127.246094"/>
      </g>
     </g>
    </g>
    <g id="xtick_8">
     <g id="line2d_8">
      <g>
       <use xlink:href="#md8ef574542" x="533.092349" y="386.44" style="stroke: #000000; stroke-width: 0.8"/>
      </g>
     </g>
     <g id="text_8">
      <!-- 140 -->
      <g transform="translate(523.548599 401.038437) scale(0.1 -0.1)">
       <use xlink:href="#DejaVuSans-31"/>
       <use xlink:href="#DejaVuSans-34" x="63.623047"/>
       <use xlink:href="#DejaVuSans-30" x="127.246094"/>
      </g>
     </g>
    </g>
    <g id="text_9">
     <!-- Epoch -->
     <g transform="translate(277.984687 417.755938) scale(0.14 -0.14)">
      <defs>
       <path id="DejaVuSans-45" d="M 628 4666 
L 3578 4666 
L 3578 4134 
L 1259 4134 
L 1259 2753 
L 3481 2753 
L 3481 2222 
L 1259 2222 
L 1259 531 
L 3634 531 
L 3634 0 
L 628 0 
L 628 4666 
z
" transform="scale(0.015625)"/>
       <path id="DejaVuSans-70" d="M 1159 525 
L 1159 -1331 
L 581 -1331 
L 581 3500 
L 1159 3500 
L 1159 2969 
Q 1341 3281 1617 3432 
Q 1894 3584 2278 3584 
Q 2916 3584 3314 3078 
Q 3713 2572 3713 1747 
Q 3713 922 3314 415 
Q 2916 -91 2278 -91 
Q 1894 -91 1617 61 
Q 1341 213 1159 525 
z
M 3116 1747 
Q 3116 2381 2855 2742 
Q 2594 3103 2138 3103 
Q 1681 3103 1420 2742 
Q 1159 2381 1159 1747 
Q 1159 1113 1420 752 
Q 1681 391 2138 391 
Q 2594 391 2855 752 
Q 3116 1113 3116 1747 
z
" transform="scale(0.015625)"/>
       <path id="DejaVuSans-6f" d="M 1959 3097 
Q 1497 3097 1228 2736 
Q 959 2375 959 1747 
Q 959 1119 1226 758 
Q 1494 397 1959 397 
Q 2419 397 2687 759 
Q 2956 1122 2956 1747 
Q 2956 2369 2687 2733 
Q 2419 3097 1959 3097 
z
M 1959 3584 
Q 2709 3584 3137 3096 
Q 3566 2609 3566 1747 
Q 3566 888 3137 398 
Q 2709 -91 1959 -91 
Q 1206 -91 779 398 
Q 353 888 353 1747 
Q 353 2609 779 3096 
Q 1206 3584 1959 3584 
z
" transform="scale(0.015625)"/>
       <path id="DejaVuSans-63" d="M 3122 3366 
L 3122 2828 
Q 2878 2963 2633 3030 
Q 2388 3097 2138 3097 
Q 1578 3097 1268 2742 
Q 959 2388 959 1747 
Q 959 1106 1268 751 
Q 1578 397 2138 397 
Q 2388 397 2633 464 
Q 2878 531 3122 666 
L 3122 134 
Q 2881 22 2623 -34 
Q 2366 -91 2075 -91 
Q 1284 -91 818 406 
Q 353 903 353 1747 
Q 353 2603 823 3093 
Q 1294 3584 2113 3584 
Q 2378 3584 2631 3529 
Q 2884 3475 3122 3366 
z
" transform="scale(0.015625)"/>
       <path id="DejaVuSans-68" d="M 3513 2113 
L 3513 0 
L 2938 0 
L 2938 2094 
Q 2938 2591 2744 2837 
Q 2550 3084 2163 3084 
Q 1697 3084 1428 2787 
Q 1159 2491 1159 1978 
L 1159 0 
L 581 0 
L 581 4863 
L 1159 4863 
L 1159 2956 
Q 1366 3272 1645 3428 
Q 1925 3584 2291 3584 
Q 2894 3584 3203 3211 
Q 3513 2838 3513 2113 
z
" transform="scale(0.015625)"/>
      </defs>
      <use xlink:href="#DejaVuSans-45"/>
      <use xlink:href="#DejaVuSans-70" x="63.183594"/>
      <use xlink:href="#DejaVuSans-6f" x="126.660156"/>
      <use xlink:href="#DejaVuSans-63" x="187.841797"/>
      <use xlink:href="#DejaVuSans-68" x="242.822266"/>
     </g>
    </g>
   </g>
   <g id="matplotlib.axis_2">
    <g id="ytick_1">
     <g id="line2d_9">
      <defs>
       <path id="mc561965aac" d="M 0 0 
L -3.5 0 
" style="stroke: #000000; stroke-width: 0.8"/>
      </defs>
      <g>
       <use xlink:href="#mc561965aac" x="33.64" y="386.44" style="stroke: #000000; stroke-width: 0.8"/>
      </g>
     </g>
     <g id="text_10">
      <!-- 0.0 -->
      <g transform="translate(10.736875 390.239219) scale(0.1 -0.1)">
       <defs>
        <path id="DejaVuSans-2e" d="M 684 794 
L 1344 794 
L 1344 0 
L 684 0 
L 684 794 
z
" transform="scale(0.015625)"/>
       </defs>
       <use xlink:href="#DejaVuSans-30"/>
       <use xlink:href="#DejaVuSans-2e" x="63.623047"/>
       <use xlink:href="#DejaVuSans-30" x="95.410156"/>
      </g>
     </g>
    </g>
    <g id="ytick_2">
     <g id="line2d_10">
      <g>
       <use xlink:href="#mc561965aac" x="33.64" y="339.266667" style="stroke: #000000; stroke-width: 0.8"/>
      </g>
     </g>
     <g id="text_11">
      <!-- 0.2 -->
      <g transform="translate(10.736875 343.065885) scale(0.1 -0.1)">
       <use xlink:href="#DejaVuSans-30"/>
       <use xlink:href="#DejaVuSans-2e" x="63.623047"/>
       <use xlink:href="#DejaVuSans-32" x="95.410156"/>
      </g>
     </g>
    </g>
    <g id="ytick_3">
     <g id="line2d_11">
      <g>
       <use xlink:href="#mc561965aac" x="33.64" y="292.093333" style="stroke: #000000; stroke-width: 0.8"/>
      </g>
     </g>
     <g id="text_12">
      <!-- 0.4 -->
      <g transform="translate(10.736875 295.892552) scale(0.1 -0.1)">
       <use xlink:href="#DejaVuSans-30"/>
       <use xlink:href="#DejaVuSans-2e" x="63.623047"/>
       <use xlink:href="#DejaVuSans-34" x="95.410156"/>
      </g>
     </g>
    </g>
    <g id="ytick_4">
     <g id="line2d_12">
      <g>
       <use xlink:href="#mc561965aac" x="33.64" y="244.92" style="stroke: #000000; stroke-width: 0.8"/>
      </g>
     </g>
     <g id="text_13">
      <!-- 0.6 -->
      <g transform="translate(10.736875 248.719219) scale(0.1 -0.1)">
       <use xlink:href="#DejaVuSans-30"/>
       <use xlink:href="#DejaVuSans-2e" x="63.623047"/>
       <use xlink:href="#DejaVuSans-36" x="95.410156"/>
      </g>
     </g>
    </g>
    <g id="ytick_5">
     <g id="line2d_13">
      <g>
       <use xlink:href="#mc561965aac" x="33.64" y="197.746667" style="stroke: #000000; stroke-width: 0.8"/>
      </g>
     </g>
     <g id="text_14">
      <!-- 0.8 -->
      <g transform="translate(10.736875 201.545885) scale(0.1 -0.1)">
       <use xlink:href="#DejaVuSans-30"/>
       <use xlink:href="#DejaVuSans-2e" x="63.623047"/>
       <use xlink:href="#DejaVuSans-38" x="95.410156"/>
      </g>
     </g>
    </g>
    <g id="ytick_6">
     <g id="line2d_14">
      <g>
       <use xlink:href="#mc561965aac" x="33.64" y="150.573333" style="stroke: #000000; stroke-width: 0.8"/>
      </g>
     </g>
     <g id="text_15">
      <!-- 1.0 -->
      <g transform="translate(10.736875 154.372552) scale(0.1 -0.1)">
       <use xlink:href="#DejaVuSans-31"/>
       <use xlink:href="#DejaVuSans-2e" x="63.623047"/>
       <use xlink:href="#DejaVuSans-30" x="95.410156"/>
      </g>
     </g>
    </g>
    <g id="ytick_7">
     <g id="line2d_15">
      <g>
       <use xlink:href="#mc561965aac" x="33.64" y="103.4" style="stroke: #000000; stroke-width: 0.8"/>
      </g>
     </g>
     <g id="text_16">
      <!-- 1.2 -->
      <g transform="translate(10.736875 107.199219) scale(0.1 -0.1)">
       <use xlink:href="#DejaVuSans-31"/>
       <use xlink:href="#DejaVuSans-2e" x="63.623047"/>
       <use xlink:href="#DejaVuSans-32" x="95.410156"/>
      </g>
     </g>
    </g>
    <g id="ytick_8">
     <g id="line2d_16">
      <g>
       <use xlink:href="#mc561965aac" x="33.64" y="56.226667" style="stroke: #000000; stroke-width: 0.8"/>
      </g>
     </g>
     <g id="text_17">
      <!-- 1.4 -->
      <g transform="translate(10.736875 60.025885) scale(0.1 -0.1)">
       <use xlink:href="#DejaVuSans-31"/>
       <use xlink:href="#DejaVuSans-2e" x="63.623047"/>
       <use xlink:href="#DejaVuSans-34" x="95.410156"/>
      </g>
     </g>
    </g>
   </g>
   <g id="line2d_17">
    <path d="M 33.64 243.200145 
L 37.207517 178.62633 
L 40.775034 176.739786 
L 44.34255 173.458671 
L 47.910067 172.931524 
L 51.477584 173.827797 
L 58.612617 169.368953 
L 62.180134 171.61308 
L 65.747651 170.106039 
L 69.315168 171.120926 
L 72.882685 170.136603 
L 76.450201 172.685833 
L 83.585235 170.106039 
L 87.152752 169.890532 
L 90.720268 170.136603 
L 94.287785 170.597434 
L 97.855302 167.798858 
L 101.422819 170.843125 
L 104.990336 170.259645 
L 108.557852 170.597434 
L 112.125369 170.228884 
L 115.692886 167.9219 
L 122.827919 169.76749 
L 126.395436 170.474589 
L 129.962953 168.783181 
L 133.53047 169.521406 
L 137.097987 170.474589 
L 140.665503 168.044942 
L 144.23302 168.877571 
L 147.800537 170.136603 
L 151.368054 167.798858 
L 154.93557 169.860348 
L 158.503087 168.537097 
L 162.070604 170.35173 
L 165.638121 167.552787 
L 169.205638 168.167984 
L 172.773154 169.368953 
L 176.340671 164.599831 
L 179.908188 169.000417 
L 183.475705 166.937576 
L 187.043221 169.152293 
L 190.610738 167.649104 
L 194.178255 166.568464 
L 197.745772 167.771949 
L 201.313289 165.707183 
L 204.880805 168.754726 
L 208.448322 168.140485 
L 212.015839 166.814548 
L 215.583356 166.052086 
L 219.150872 164.722874 
L 222.718389 169.123262 
L 226.285906 167.183661 
L 229.853423 167.552787 
L 233.42094 166.052086 
L 236.988456 165.830225 
L 240.555973 166.543468 
L 244.12349 165.953267 
L 247.691007 166.691506 
L 251.258523 165.437845 
L 254.82604 165.584155 
L 258.393557 166.297777 
L 261.961074 165.830225 
L 265.528591 167.9219 
L 269.096107 167.034863 
L 272.663624 167.429745 
L 276.231141 164.209378 
L 279.798658 165.953267 
L 283.366174 166.420622 
L 286.933691 165.192155 
L 290.501208 164.722874 
L 294.068725 166.174931 
L 297.636242 165.953267 
L 301.203758 164.455069 
L 304.771275 166.076309 
L 308.338792 165.215028 
L 311.906309 163.717982 
L 315.473826 165.215028 
L 319.041342 164.946464 
L 322.608859 163.861592 
L 326.176376 165.33807 
L 329.743893 164.455069 
L 333.311409 162.508157 
L 336.878926 165.069309 
L 340.446443 164.599831 
L 344.01396 163.49248 
L 347.581477 163.963687 
L 351.148993 163.369438 
L 354.71651 164.455069 
L 358.284027 164.230719 
L 368.986577 163.123354 
L 372.554094 163.840828 
L 376.121611 163.123354 
L 379.689128 162.980896 
L 383.256644 162.120979 
L 386.824161 164.599831 
L 390.391678 161.383893 
L 393.959195 164.845916 
L 397.526711 162.735206 
L 401.094228 161.769932 
L 404.661745 164.230719 
L 408.229262 162.489515 
L 411.796779 163.000325 
L 415.364295 162.735206 
L 418.931812 163.246396 
L 422.499329 161.400805 
L 426.066846 161.875274 
L 429.634362 162.754241 
L 433.201879 160.892497 
L 436.769396 161.89296 
L 440.336913 162.016002 
L 443.90443 160.892497 
L 447.471946 161.89296 
L 451.039463 162.366669 
L 454.60698 161.769932 
L 458.174497 162.243824 
L 461.742013 160.769652 
L 465.30953 161.523847 
L 468.877047 161.998119 
L 472.444564 161.277763 
L 476.012081 162.243824 
L 479.579597 161.277763 
L 483.147114 160.908651 
L 486.714631 161.998119 
L 490.282148 163.369438 
L 493.849664 161.138188 
L 497.417181 159.555215 
L 500.984698 162.385129 
L 504.552215 161.015343 
L 508.119732 161.523847 
L 511.687248 160.892497 
L 515.254765 161.154721 
L 518.822282 160.662566 
L 522.389799 162.120979 
L 525.957315 159.186102 
L 529.524832 160.401116 
L 533.092349 161.400805 
L 536.659866 160.662566 
L 540.227383 160.523961 
L 543.794899 161.031693 
L 547.362416 160.155411 
L 550.929933 160.170412 
L 554.49745 161.875274 
L 558.064966 158.681253 
L 561.632483 160.662566 
L 565.2 160.523961 
L 565.2 160.523961 
" clip-path="url(#p409e645027)" style="fill: none; stroke: #ffa500; stroke-width: 1.5; stroke-linecap: square"/>
   </g>
   <g id="line2d_18">
    <path d="M 40.502283 -1 
L 40.775034 5.558154 
L 44.34255 75.749466 
L 47.910067 82.392759 
L 51.477584 79.630047 
L 55.045101 131.551228 
L 58.612617 128.020401 
L 62.180134 123.078807 
L 65.747651 133.066283 
L 69.315168 105.880205 
L 72.882685 142.634611 
L 76.450201 118.204526 
L 80.017718 135.918606 
L 87.152752 142.207675 
L 90.720268 159.169471 
L 94.287785 154.346561 
L 97.855302 152.434065 
L 101.422819 145.273101 
L 104.990336 155.867577 
L 108.557852 151.500241 
L 112.125369 163.664081 
L 115.692886 170.991838 
L 119.260403 152.541333 
L 122.827919 168.004045 
L 126.395436 143.1804 
L 129.962953 167.265005 
L 133.53047 169.45062 
L 137.097987 168.83524 
L 140.665503 165.099001 
L 144.23302 180.771132 
L 147.800537 159.212913 
L 151.368054 195.705615 
L 154.93557 157.652377 
L 158.503087 182.109033 
L 162.070604 186.364026 
L 165.638121 197.061469 
L 169.205638 193.465719 
L 172.773154 175.576214 
L 176.340671 211.863321 
L 179.908188 188.813355 
L 183.475705 205.092149 
L 187.043221 180.946318 
L 190.610738 204.745489 
L 194.178255 192.744828 
L 197.745772 201.026739 
L 201.313289 196.163297 
L 204.880805 196.613458 
L 208.448322 198.983693 
L 212.015839 229.410565 
L 215.583356 215.783111 
L 219.150872 228.720759 
L 222.718389 195.254596 
L 226.285906 199.335359 
L 229.853423 221.230173 
L 233.42094 220.284553 
L 240.555973 229.754808 
L 244.12349 220.480645 
L 247.691007 213.686825 
L 251.258523 218.969948 
L 254.82604 231.747692 
L 258.393557 217.638894 
L 261.961074 234.615424 
L 265.528591 216.811438 
L 269.096107 227.614153 
L 272.663624 218.956648 
L 276.231141 256.482303 
L 279.798658 231.246638 
L 283.366174 234.211951 
L 286.933691 239.554234 
L 290.501208 239.942073 
L 294.068725 239.391335 
L 297.636242 239.02159 
L 301.203758 237.988244 
L 304.771275 227.987454 
L 308.338792 266.529627 
L 311.906309 252.889843 
L 315.473826 240.919142 
L 319.041342 239.433371 
L 326.176376 245.231578 
L 329.743893 242.840087 
L 333.311409 247.863025 
L 336.878926 255.952007 
L 340.446443 245.791046 
L 344.01396 254.872365 
L 347.581477 261.019497 
L 351.148993 252.460461 
L 354.71651 255.243516 
L 358.284027 254.142562 
L 361.851544 255.565546 
L 365.41906 258.093478 
L 368.986577 266.080984 
L 372.554094 253.035168 
L 376.121611 263.508177 
L 379.689128 258.893603 
L 383.256644 280.291272 
L 386.824161 233.186689 
L 390.391678 281.098245 
L 393.959195 261.440585 
L 397.526711 276.14631 
L 401.094228 270.047541 
L 404.661745 254.537121 
L 408.229262 262.115714 
L 411.796779 277.303064 
L 415.364295 260.464837 
L 418.931812 273.777608 
L 422.499329 270.776824 
L 426.066846 266.301032 
L 429.634362 271.144784 
L 433.201879 276.554365 
L 436.769396 286.142285 
L 440.336913 269.380453 
L 443.90443 277.418979 
L 447.471946 277.452523 
L 451.039463 276.071813 
L 454.60698 277.798579 
L 458.174497 280.258354 
L 461.742013 293.079743 
L 465.30953 278.3592 
L 468.877047 270.255955 
L 472.444564 289.577898 
L 476.012081 270.948278 
L 479.579597 282.369542 
L 483.147114 291.055382 
L 486.714631 276.727063 
L 490.282148 282.091291 
L 493.849664 276.903648 
L 497.417181 290.501389 
L 500.984698 278.957034 
L 504.552215 298.86231 
L 508.119732 267.464449 
L 511.687248 286.104593 
L 515.254765 288.494088 
L 518.822282 289.419562 
L 522.389799 271.740045 
L 525.957315 308.288371 
L 529.524832 277.564578 
L 533.092349 288.864733 
L 536.659866 289.09524 
L 540.227383 286.658627 
L 543.794899 277.353029 
L 547.362416 294.904463 
L 550.929933 300.776606 
L 554.49745 276.974863 
L 558.064966 306.359644 
L 561.632483 292.725202 
L 565.2 294.241748 
L 565.2 294.241748 
" clip-path="url(#p409e645027)" style="fill: none; stroke: #ff0000; stroke-width: 1.5; stroke-linecap: square"/>
   </g>
   <g id="line2d_19">
    <path d="M 33.64 182.335463 
L 37.207517 170.669176 
L 40.775034 172.556113 
L 44.34255 178.877334 
L 47.910067 170.103087 
L 51.477584 167.83877 
L 55.045101 167.744422 
L 58.612617 170.119254 
L 62.180134 171.612645 
L 65.747651 170.197435 
L 69.315168 169.159632 
L 72.882685 170.952207 
L 76.450201 169.537011 
L 80.017718 171.518296 
L 83.585235 170.025285 
L 87.152752 170.291783 
L 90.720268 168.121815 
L 94.287785 168.593542 
L 97.855302 166.706619 
L 101.422819 169.725708 
L 104.990336 169.442663 
L 108.557852 167.582044 
L 112.125369 171.810732 
L 115.692886 168.687891 
L 119.260403 168.970935 
L 122.827919 170.857873 
L 126.395436 171.423948 
L 129.962953 167.744422 
L 133.53047 167.933119 
L 137.097987 169.367491 
L 140.665503 167.650074 
L 144.23302 171.140903 
L 147.800537 168.310512 
L 151.368054 168.027467 
L 154.93557 168.593542 
L 158.503087 168.970935 
L 162.070604 171.152938 
L 165.638121 169.914404 
L 169.205638 168.216163 
L 172.773154 169.442663 
L 176.340671 167.55574 
L 179.908188 169.065284 
L 183.475705 168.310512 
L 187.043221 168.991602 
L 190.610738 169.367491 
L 194.178255 170.952207 
L 197.745772 168.40486 
L 204.880805 167.933119 
L 208.448322 170.386131 
L 212.015839 169.914404 
L 215.583356 170.495143 
L 219.150872 168.593542 
L 222.718389 168.499194 
L 226.285906 169.725708 
L 229.853423 168.027467 
L 233.42094 169.725708 
L 236.988456 168.121815 
L 240.555973 168.897633 
L 244.12349 168.216163 
L 247.691007 167.933119 
L 251.258523 168.40486 
L 254.82604 168.027467 
L 258.393557 169.159632 
L 265.528591 169.367491 
L 269.096107 176.227359 
L 272.663624 169.725708 
L 276.231141 168.310512 
L 279.798658 168.310512 
L 283.366174 167.933119 
L 286.933691 169.442663 
L 290.501208 168.687891 
L 294.068725 168.333807 
L 297.636242 167.650074 
L 301.203758 169.725708 
L 304.771275 169.537011 
L 308.338792 167.461391 
L 311.906309 169.725708 
L 315.473826 170.103087 
L 319.041342 170.119254 
L 322.608859 168.687891 
L 326.176376 169.25398 
L 329.743893 168.687891 
L 333.311409 170.103087 
L 336.878926 169.159632 
L 340.446443 168.970935 
L 344.01396 169.649397 
L 347.581477 170.871018 
L 351.148993 176.235625 
L 354.71651 170.857873 
L 358.284027 169.725708 
L 361.851544 168.40486 
L 365.41906 169.725708 
L 368.986577 168.687891 
L 372.554094 169.367491 
L 376.121611 168.687891 
L 379.689128 168.876587 
L 383.256644 170.574828 
L 386.824161 170.857873 
L 390.391678 167.178347 
L 393.959195 169.159632 
L 397.526711 170.307191 
L 401.094228 173.122189 
L 404.661745 169.159632 
L 408.229262 170.103087 
L 411.796779 169.25398 
L 415.364295 170.669176 
L 418.931812 172.933492 
L 422.499329 169.743379 
L 426.066846 169.837348 
L 429.634362 170.48048 
L 433.201879 168.782239 
L 436.769396 168.310512 
L 440.336913 169.820056 
L 443.90443 169.725708 
L 447.471946 172.650447 
L 451.039463 169.085585 
L 454.60698 171.140903 
L 458.174497 169.348314 
L 461.742013 170.952207 
L 465.30953 169.159632 
L 468.877047 169.914404 
L 472.444564 172.273068 
L 476.012081 169.273522 
L 479.579597 168.897633 
L 483.147114 170.857873 
L 486.714631 169.442663 
L 490.282148 168.876587 
L 493.849664 168.970935 
L 497.417181 168.216163 
L 500.984698 169.065284 
L 504.552215 168.051901 
L 508.119732 169.820056 
L 515.254765 168.310512 
L 518.822282 169.820056 
L 522.389799 167.55574 
L 525.957315 170.669176 
L 529.524832 167.300138 
L 533.092349 169.631359 
L 536.659866 169.820056 
L 540.227383 167.367043 
L 543.794899 174.25434 
L 547.362416 171.046555 
L 550.929933 169.25398 
L 554.49745 169.837348 
L 558.064966 171.340875 
L 561.632483 170.291783 
L 565.2 168.687891 
L 565.2 168.687891 
" clip-path="url(#p409e645027)" style="fill: none; stroke: #008000; stroke-width: 1.5; stroke-linecap: square"/>
   </g>
   <g id="line2d_20">
    <path d="M 33.64 211.612709 
L 37.207517 299.442648 
L 40.775034 311.433173 
L 44.34255 296.231187 
L 47.910067 320.889727 
L 51.477584 328.092692 
L 55.045101 323.340504 
L 58.612617 322.694821 
L 62.180134 318.746548 
L 65.747651 324.827449 
L 69.315168 326.256274 
L 72.882685 322.500894 
L 76.450201 321.638924 
L 80.017718 326.081616 
L 87.152752 317.1421 
L 90.720268 326.445308 
L 94.287785 323.977562 
L 97.855302 329.606228 
L 101.422819 322.082225 
L 104.990336 320.583007 
L 108.557852 326.749013 
L 112.125369 316.63124 
L 115.692886 323.192711 
L 119.260403 325.066904 
L 122.827919 322.741187 
L 126.395436 319.006009 
L 129.962953 323.038367 
L 133.53047 325.717951 
L 137.097987 324.619794 
L 140.665503 324.039477 
L 144.23302 324.724342 
L 147.800537 323.394989 
L 151.368054 322.454156 
L 154.93557 325.097665 
L 158.503087 318.51015 
L 162.070604 321.259289 
L 165.638121 320.241984 
L 169.205638 325.10442 
L 172.773154 320.05922 
L 176.340671 323.044054 
L 179.908188 322.124401 
L 183.475705 323.229988 
L 187.043221 322.001591 
L 190.610738 316.786421 
L 194.178255 319.78887 
L 197.745772 318.099009 
L 201.313289 320.661476 
L 204.880805 319.803506 
L 208.448322 315.286162 
L 212.015839 317.911085 
L 215.583356 316.292424 
L 219.150872 319.941935 
L 222.718389 319.996328 
L 226.285906 317.59496 
L 229.853423 313.920489 
L 233.42094 314.132368 
L 236.988456 318.478454 
L 240.555973 310.635866 
L 244.12349 316.650016 
L 247.691007 311.764172 
L 251.258523 312.298685 
L 254.82604 311.78138 
L 258.393557 315.879027 
L 261.961074 315.102274 
L 265.528591 304.761164 
L 269.096107 284.071234 
L 272.663624 315.505542 
L 276.231141 301.03736 
L 279.798658 311.397456 
L 283.366174 305.415438 
L 286.933691 312.897082 
L 290.501208 308.417219 
L 294.068725 311.402567 
L 297.636242 311.084417 
L 301.203758 301.788976 
L 304.771275 310.308522 
L 308.338792 307.22522 
L 311.906309 307.629585 
L 315.473826 305.773352 
L 319.041342 308.290402 
L 322.608859 300.529439 
L 326.176376 302.881257 
L 329.743893 311.335183 
L 333.311409 302.88196 
L 336.878926 304.88259 
L 340.446443 302.601347 
L 344.01396 303.377573 
L 347.581477 307.182369 
L 351.148993 295.666595 
L 354.71651 303.296053 
L 358.284027 296.970249 
L 361.851544 304.978463 
L 365.41906 301.620145 
L 368.986577 306.163391 
L 372.554094 296.044508 
L 376.121611 302.070896 
L 379.689128 301.264388 
L 383.256644 289.378124 
L 386.824161 304.00441 
L 390.391678 304.776615 
L 393.959195 304.269425 
L 397.526711 302.8604 
L 401.094228 295.245472 
L 404.661745 301.091817 
L 408.229262 296.759895 
L 411.796779 298.427937 
L 415.364295 299.362492 
L 418.931812 297.500995 
L 422.499329 294.352552 
L 426.066846 300.163813 
L 429.634362 287.609343 
L 433.201879 302.31826 
L 436.769396 296.989931 
L 440.336913 296.543137 
L 443.90443 299.752341 
L 447.471946 293.370682 
L 451.039463 287.721363 
L 454.60698 293.993822 
L 458.174497 298.933483 
L 461.742013 292.383793 
L 465.30953 285.300018 
L 468.877047 298.393043 
L 472.444564 278.22877 
L 476.012081 293.992992 
L 479.579597 290.904173 
L 483.147114 283.307303 
L 486.714631 295.608546 
L 490.282148 288.94593 
L 493.849664 292.575146 
L 497.417181 298.26721 
L 500.984698 289.417052 
L 504.552215 299.685696 
L 508.119732 291.109395 
L 511.687248 291.363894 
L 515.254765 296.442343 
L 518.822282 290.881967 
L 522.389799 296.597368 
L 525.957315 290.893094 
L 529.524832 294.593301 
L 533.092349 289.594263 
L 536.659866 290.774874 
L 540.227383 293.357157 
L 543.794899 273.303941 
L 547.362416 288.825741 
L 550.929933 291.918441 
L 554.49745 292.331164 
L 558.064966 283.833037 
L 561.632483 287.54946 
L 565.2 286.003771 
L 565.2 286.003771 
" clip-path="url(#p409e645027)" style="fill: none; stroke: #0000ff; stroke-width: 3; stroke-linecap: square"/>
   </g>
   <g id="patch_3">
    <path d="M 33.64 386.44 
L 33.64 32.64 
" style="fill: none; stroke: #000000; stroke-width: 0.8; stroke-linejoin: miter; stroke-linecap: square"/>
   </g>
   <g id="patch_4">
    <path d="M 565.2 386.44 
L 565.2 32.64 
" style="fill: none; stroke: #000000; stroke-width: 0.8; stroke-linejoin: miter; stroke-linecap: square"/>
   </g>
   <g id="patch_5">
    <path d="M 33.64 386.44 
L 565.2 386.44 
" style="fill: none; stroke: #000000; stroke-width: 0.8; stroke-linejoin: miter; stroke-linecap: square"/>
   </g>
   <g id="patch_6">
    <path d="M 33.64 32.64 
L 565.2 32.64 
" style="fill: none; stroke: #000000; stroke-width: 0.8; stroke-linejoin: miter; stroke-linecap: square"/>
   </g>
   <g id="text_18">
    <!-- Development of Accuracy and Loss Function -->
    <g transform="translate(77.634062 26.64) scale(0.2 -0.2)">
     <defs>
      <path id="DejaVuSans-44" d="M 1259 4147 
L 1259 519 
L 2022 519 
Q 2988 519 3436 956 
Q 3884 1394 3884 2338 
Q 3884 3275 3436 3711 
Q 2988 4147 2022 4147 
L 1259 4147 
z
M 628 4666 
L 1925 4666 
Q 3281 4666 3915 4102 
Q 4550 3538 4550 2338 
Q 4550 1131 3912 565 
Q 3275 0 1925 0 
L 628 0 
L 628 4666 
z
" transform="scale(0.015625)"/>
      <path id="DejaVuSans-65" d="M 3597 1894 
L 3597 1613 
L 953 1613 
Q 991 1019 1311 708 
Q 1631 397 2203 397 
Q 2534 397 2845 478 
Q 3156 559 3463 722 
L 3463 178 
Q 3153 47 2828 -22 
Q 2503 -91 2169 -91 
Q 1331 -91 842 396 
Q 353 884 353 1716 
Q 353 2575 817 3079 
Q 1281 3584 2069 3584 
Q 2775 3584 3186 3129 
Q 3597 2675 3597 1894 
z
M 3022 2063 
Q 3016 2534 2758 2815 
Q 2500 3097 2075 3097 
Q 1594 3097 1305 2825 
Q 1016 2553 972 2059 
L 3022 2063 
z
" transform="scale(0.015625)"/>
      <path id="DejaVuSans-76" d="M 191 3500 
L 800 3500 
L 1894 563 
L 2988 3500 
L 3597 3500 
L 2284 0 
L 1503 0 
L 191 3500 
z
" transform="scale(0.015625)"/>
      <path id="DejaVuSans-6c" d="M 603 4863 
L 1178 4863 
L 1178 0 
L 603 0 
L 603 4863 
z
" transform="scale(0.015625)"/>
      <path id="DejaVuSans-6d" d="M 3328 2828 
Q 3544 3216 3844 3400 
Q 4144 3584 4550 3584 
Q 5097 3584 5394 3201 
Q 5691 2819 5691 2113 
L 5691 0 
L 5113 0 
L 5113 2094 
Q 5113 2597 4934 2840 
Q 4756 3084 4391 3084 
Q 3944 3084 3684 2787 
Q 3425 2491 3425 1978 
L 3425 0 
L 2847 0 
L 2847 2094 
Q 2847 2600 2669 2842 
Q 2491 3084 2119 3084 
Q 1678 3084 1418 2786 
Q 1159 2488 1159 1978 
L 1159 0 
L 581 0 
L 581 3500 
L 1159 3500 
L 1159 2956 
Q 1356 3278 1631 3431 
Q 1906 3584 2284 3584 
Q 2666 3584 2933 3390 
Q 3200 3197 3328 2828 
z
" transform="scale(0.015625)"/>
      <path id="DejaVuSans-6e" d="M 3513 2113 
L 3513 0 
L 2938 0 
L 2938 2094 
Q 2938 2591 2744 2837 
Q 2550 3084 2163 3084 
Q 1697 3084 1428 2787 
Q 1159 2491 1159 1978 
L 1159 0 
L 581 0 
L 581 3500 
L 1159 3500 
L 1159 2956 
Q 1366 3272 1645 3428 
Q 1925 3584 2291 3584 
Q 2894 3584 3203 3211 
Q 3513 2838 3513 2113 
z
" transform="scale(0.015625)"/>
      <path id="DejaVuSans-74" d="M 1172 4494 
L 1172 3500 
L 2356 3500 
L 2356 3053 
L 1172 3053 
L 1172 1153 
Q 1172 725 1289 603 
Q 1406 481 1766 481 
L 2356 481 
L 2356 0 
L 1766 0 
Q 1100 0 847 248 
Q 594 497 594 1153 
L 594 3053 
L 172 3053 
L 172 3500 
L 594 3500 
L 594 4494 
L 1172 4494 
z
" transform="scale(0.015625)"/>
      <path id="DejaVuSans-20" transform="scale(0.015625)"/>
      <path id="DejaVuSans-66" d="M 2375 4863 
L 2375 4384 
L 1825 4384 
Q 1516 4384 1395 4259 
Q 1275 4134 1275 3809 
L 1275 3500 
L 2222 3500 
L 2222 3053 
L 1275 3053 
L 1275 0 
L 697 0 
L 697 3053 
L 147 3053 
L 147 3500 
L 697 3500 
L 697 3744 
Q 697 4328 969 4595 
Q 1241 4863 1831 4863 
L 2375 4863 
z
" transform="scale(0.015625)"/>
      <path id="DejaVuSans-41" d="M 2188 4044 
L 1331 1722 
L 3047 1722 
L 2188 4044 
z
M 1831 4666 
L 2547 4666 
L 4325 0 
L 3669 0 
L 3244 1197 
L 1141 1197 
L 716 0 
L 50 0 
L 1831 4666 
z
" transform="scale(0.015625)"/>
      <path id="DejaVuSans-75" d="M 544 1381 
L 544 3500 
L 1119 3500 
L 1119 1403 
Q 1119 906 1312 657 
Q 1506 409 1894 409 
Q 2359 409 2629 706 
Q 2900 1003 2900 1516 
L 2900 3500 
L 3475 3500 
L 3475 0 
L 2900 0 
L 2900 538 
Q 2691 219 2414 64 
Q 2138 -91 1772 -91 
Q 1169 -91 856 284 
Q 544 659 544 1381 
z
M 1991 3584 
L 1991 3584 
z
" transform="scale(0.015625)"/>
      <path id="DejaVuSans-72" d="M 2631 2963 
Q 2534 3019 2420 3045 
Q 2306 3072 2169 3072 
Q 1681 3072 1420 2755 
Q 1159 2438 1159 1844 
L 1159 0 
L 581 0 
L 581 3500 
L 1159 3500 
L 1159 2956 
Q 1341 3275 1631 3429 
Q 1922 3584 2338 3584 
Q 2397 3584 2469 3576 
Q 2541 3569 2628 3553 
L 2631 2963 
z
" transform="scale(0.015625)"/>
      <path id="DejaVuSans-61" d="M 2194 1759 
Q 1497 1759 1228 1600 
Q 959 1441 959 1056 
Q 959 750 1161 570 
Q 1363 391 1709 391 
Q 2188 391 2477 730 
Q 2766 1069 2766 1631 
L 2766 1759 
L 2194 1759 
z
M 3341 1997 
L 3341 0 
L 2766 0 
L 2766 531 
Q 2569 213 2275 61 
Q 1981 -91 1556 -91 
Q 1019 -91 701 211 
Q 384 513 384 1019 
Q 384 1609 779 1909 
Q 1175 2209 1959 2209 
L 2766 2209 
L 2766 2266 
Q 2766 2663 2505 2880 
Q 2244 3097 1772 3097 
Q 1472 3097 1187 3025 
Q 903 2953 641 2809 
L 641 3341 
Q 956 3463 1253 3523 
Q 1550 3584 1831 3584 
Q 2591 3584 2966 3190 
Q 3341 2797 3341 1997 
z
" transform="scale(0.015625)"/>
      <path id="DejaVuSans-79" d="M 2059 -325 
Q 1816 -950 1584 -1140 
Q 1353 -1331 966 -1331 
L 506 -1331 
L 506 -850 
L 844 -850 
Q 1081 -850 1212 -737 
Q 1344 -625 1503 -206 
L 1606 56 
L 191 3500 
L 800 3500 
L 1894 763 
L 2988 3500 
L 3597 3500 
L 2059 -325 
z
" transform="scale(0.015625)"/>
      <path id="DejaVuSans-64" d="M 2906 2969 
L 2906 4863 
L 3481 4863 
L 3481 0 
L 2906 0 
L 2906 525 
Q 2725 213 2448 61 
Q 2172 -91 1784 -91 
Q 1150 -91 751 415 
Q 353 922 353 1747 
Q 353 2572 751 3078 
Q 1150 3584 1784 3584 
Q 2172 3584 2448 3432 
Q 2725 3281 2906 2969 
z
M 947 1747 
Q 947 1113 1208 752 
Q 1469 391 1925 391 
Q 2381 391 2643 752 
Q 2906 1113 2906 1747 
Q 2906 2381 2643 2742 
Q 2381 3103 1925 3103 
Q 1469 3103 1208 2742 
Q 947 2381 947 1747 
z
" transform="scale(0.015625)"/>
      <path id="DejaVuSans-4c" d="M 628 4666 
L 1259 4666 
L 1259 531 
L 3531 531 
L 3531 0 
L 628 0 
L 628 4666 
z
" transform="scale(0.015625)"/>
      <path id="DejaVuSans-73" d="M 2834 3397 
L 2834 2853 
Q 2591 2978 2328 3040 
Q 2066 3103 1784 3103 
Q 1356 3103 1142 2972 
Q 928 2841 928 2578 
Q 928 2378 1081 2264 
Q 1234 2150 1697 2047 
L 1894 2003 
Q 2506 1872 2764 1633 
Q 3022 1394 3022 966 
Q 3022 478 2636 193 
Q 2250 -91 1575 -91 
Q 1294 -91 989 -36 
Q 684 19 347 128 
L 347 722 
Q 666 556 975 473 
Q 1284 391 1588 391 
Q 1994 391 2212 530 
Q 2431 669 2431 922 
Q 2431 1156 2273 1281 
Q 2116 1406 1581 1522 
L 1381 1569 
Q 847 1681 609 1914 
Q 372 2147 372 2553 
Q 372 3047 722 3315 
Q 1072 3584 1716 3584 
Q 2034 3584 2315 3537 
Q 2597 3491 2834 3397 
z
" transform="scale(0.015625)"/>
      <path id="DejaVuSans-46" d="M 628 4666 
L 3309 4666 
L 3309 4134 
L 1259 4134 
L 1259 2759 
L 3109 2759 
L 3109 2228 
L 1259 2228 
L 1259 0 
L 628 0 
L 628 4666 
z
" transform="scale(0.015625)"/>
      <path id="DejaVuSans-69" d="M 603 3500 
L 1178 3500 
L 1178 0 
L 603 0 
L 603 3500 
z
M 603 4863 
L 1178 4863 
L 1178 4134 
L 603 4134 
L 603 4863 
z
" transform="scale(0.015625)"/>
     </defs>
     <use xlink:href="#DejaVuSans-44"/>
     <use xlink:href="#DejaVuSans-65" x="77.001953"/>
     <use xlink:href="#DejaVuSans-76" x="138.525391"/>
     <use xlink:href="#DejaVuSans-65" x="197.705078"/>
     <use xlink:href="#DejaVuSans-6c" x="259.228516"/>
     <use xlink:href="#DejaVuSans-6f" x="287.011719"/>
     <use xlink:href="#DejaVuSans-70" x="348.193359"/>
     <use xlink:href="#DejaVuSans-6d" x="411.669922"/>
     <use xlink:href="#DejaVuSans-65" x="509.082031"/>
     <use xlink:href="#DejaVuSans-6e" x="570.605469"/>
     <use xlink:href="#DejaVuSans-74" x="633.984375"/>
     <use xlink:href="#DejaVuSans-20" x="673.193359"/>
     <use xlink:href="#DejaVuSans-6f" x="704.980469"/>
     <use xlink:href="#DejaVuSans-66" x="766.162109"/>
     <use xlink:href="#DejaVuSans-20" x="801.367188"/>
     <use xlink:href="#DejaVuSans-41" x="833.154297"/>
     <use xlink:href="#DejaVuSans-63" x="899.8125"/>
     <use xlink:href="#DejaVuSans-63" x="954.792969"/>
     <use xlink:href="#DejaVuSans-75" x="1009.773438"/>
     <use xlink:href="#DejaVuSans-72" x="1073.152344"/>
     <use xlink:href="#DejaVuSans-61" x="1114.265625"/>
     <use xlink:href="#DejaVuSans-63" x="1175.544922"/>
     <use xlink:href="#DejaVuSans-79" x="1230.525391"/>
     <use xlink:href="#DejaVuSans-20" x="1289.705078"/>
     <use xlink:href="#DejaVuSans-61" x="1321.492188"/>
     <use xlink:href="#DejaVuSans-6e" x="1382.771484"/>
     <use xlink:href="#DejaVuSans-64" x="1446.150391"/>
     <use xlink:href="#DejaVuSans-20" x="1509.626953"/>
     <use xlink:href="#DejaVuSans-4c" x="1541.414062"/>
     <use xlink:href="#DejaVuSans-6f" x="1595.376953"/>
     <use xlink:href="#DejaVuSans-73" x="1656.558594"/>
     <use xlink:href="#DejaVuSans-73" x="1708.658203"/>
     <use xlink:href="#DejaVuSans-20" x="1760.757812"/>
     <use xlink:href="#DejaVuSans-46" x="1792.544922"/>
     <use xlink:href="#DejaVuSans-75" x="1844.564453"/>
     <use xlink:href="#DejaVuSans-6e" x="1907.943359"/>
     <use xlink:href="#DejaVuSans-63" x="1971.322266"/>
     <use xlink:href="#DejaVuSans-74" x="2026.302734"/>
     <use xlink:href="#DejaVuSans-69" x="2065.511719"/>
     <use xlink:href="#DejaVuSans-6f" x="2093.294922"/>
     <use xlink:href="#DejaVuSans-6e" x="2154.476562"/>
    </g>
   </g>
   <g id="legend_1">
    <g id="patch_7">
     <path d="M 405.998437 99.3525 
L 558.2 99.3525 
Q 560.2 99.3525 560.2 97.3525 
L 560.2 39.64 
Q 560.2 37.64 558.2 37.64 
L 405.998437 37.64 
Q 403.998437 37.64 403.998437 39.64 
L 403.998437 97.3525 
Q 403.998437 99.3525 405.998437 99.3525 
z
" style="fill: #ffffff; opacity: 0.8; stroke: #cccccc; stroke-linejoin: miter"/>
    </g>
    <g id="line2d_21">
     <path d="M 407.998437 45.738438 
L 417.998437 45.738438 
L 427.998437 45.738438 
" style="fill: none; stroke: #ffa500; stroke-width: 1.5; stroke-linecap: square"/>
    </g>
    <g id="text_19">
     <!-- Accuracy -->
     <g transform="translate(435.998437 49.238438) scale(0.1 -0.1)">
      <use xlink:href="#DejaVuSans-41"/>
      <use xlink:href="#DejaVuSans-63" x="66.658203"/>
      <use xlink:href="#DejaVuSans-63" x="121.638672"/>
      <use xlink:href="#DejaVuSans-75" x="176.619141"/>
      <use xlink:href="#DejaVuSans-72" x="239.998047"/>
      <use xlink:href="#DejaVuSans-61" x="281.111328"/>
      <use xlink:href="#DejaVuSans-63" x="342.390625"/>
      <use xlink:href="#DejaVuSans-79" x="397.371094"/>
     </g>
    </g>
    <g id="line2d_22">
     <path d="M 407.998437 60.416563 
L 417.998437 60.416563 
L 427.998437 60.416563 
" style="fill: none; stroke: #ff0000; stroke-width: 1.5; stroke-linecap: square"/>
    </g>
    <g id="text_20">
     <!-- Loss Function -->
     <g transform="translate(435.998437 63.916563) scale(0.1 -0.1)">
      <use xlink:href="#DejaVuSans-4c"/>
      <use xlink:href="#DejaVuSans-6f" x="53.962891"/>
      <use xlink:href="#DejaVuSans-73" x="115.144531"/>
      <use xlink:href="#DejaVuSans-73" x="167.244141"/>
      <use xlink:href="#DejaVuSans-20" x="219.34375"/>
      <use xlink:href="#DejaVuSans-46" x="251.130859"/>
      <use xlink:href="#DejaVuSans-75" x="303.150391"/>
      <use xlink:href="#DejaVuSans-6e" x="366.529297"/>
      <use xlink:href="#DejaVuSans-63" x="429.908203"/>
      <use xlink:href="#DejaVuSans-74" x="484.888672"/>
      <use xlink:href="#DejaVuSans-69" x="524.097656"/>
      <use xlink:href="#DejaVuSans-6f" x="551.880859"/>
      <use xlink:href="#DejaVuSans-6e" x="613.0625"/>
     </g>
    </g>
    <g id="line2d_23">
     <path d="M 407.998437 75.094688 
L 417.998437 75.094688 
L 427.998437 75.094688 
" style="fill: none; stroke: #008000; stroke-width: 1.5; stroke-linecap: square"/>
    </g>
    <g id="text_21">
     <!-- Validation Accuracy -->
     <g transform="translate(435.998437 78.594688) scale(0.1 -0.1)">
      <defs>
       <path id="DejaVuSans-56" d="M 1831 0 
L 50 4666 
L 709 4666 
L 2188 738 
L 3669 4666 
L 4325 4666 
L 2547 0 
L 1831 0 
z
" transform="scale(0.015625)"/>
      </defs>
      <use xlink:href="#DejaVuSans-56"/>
      <use xlink:href="#DejaVuSans-61" x="60.658203"/>
      <use xlink:href="#DejaVuSans-6c" x="121.9375"/>
      <use xlink:href="#DejaVuSans-69" x="149.720703"/>
      <use xlink:href="#DejaVuSans-64" x="177.503906"/>
      <use xlink:href="#DejaVuSans-61" x="240.980469"/>
      <use xlink:href="#DejaVuSans-74" x="302.259766"/>
      <use xlink:href="#DejaVuSans-69" x="341.46875"/>
      <use xlink:href="#DejaVuSans-6f" x="369.251953"/>
      <use xlink:href="#DejaVuSans-6e" x="430.433594"/>
      <use xlink:href="#DejaVuSans-20" x="493.8125"/>
      <use xlink:href="#DejaVuSans-41" x="525.599609"/>
      <use xlink:href="#DejaVuSans-63" x="592.257812"/>
      <use xlink:href="#DejaVuSans-63" x="647.238281"/>
      <use xlink:href="#DejaVuSans-75" x="702.21875"/>
      <use xlink:href="#DejaVuSans-72" x="765.597656"/>
      <use xlink:href="#DejaVuSans-61" x="806.710938"/>
      <use xlink:href="#DejaVuSans-63" x="867.990234"/>
      <use xlink:href="#DejaVuSans-79" x="922.970703"/>
     </g>
    </g>
    <g id="line2d_24">
     <path d="M 407.998437 89.772813 
L 417.998437 89.772813 
L 427.998437 89.772813 
" style="fill: none; stroke: #0000ff; stroke-width: 3; stroke-linecap: square"/>
    </g>
    <g id="text_22">
     <!-- Validation Loss Function -->
     <g transform="translate(435.998437 93.272813) scale(0.1 -0.1)">
      <use xlink:href="#DejaVuSans-56"/>
      <use xlink:href="#DejaVuSans-61" x="60.658203"/>
      <use xlink:href="#DejaVuSans-6c" x="121.9375"/>
      <use xlink:href="#DejaVuSans-69" x="149.720703"/>
      <use xlink:href="#DejaVuSans-64" x="177.503906"/>
      <use xlink:href="#DejaVuSans-61" x="240.980469"/>
      <use xlink:href="#DejaVuSans-74" x="302.259766"/>
      <use xlink:href="#DejaVuSans-69" x="341.46875"/>
      <use xlink:href="#DejaVuSans-6f" x="369.251953"/>
      <use xlink:href="#DejaVuSans-6e" x="430.433594"/>
      <use xlink:href="#DejaVuSans-20" x="493.8125"/>
      <use xlink:href="#DejaVuSans-4c" x="525.599609"/>
      <use xlink:href="#DejaVuSans-6f" x="579.5625"/>
      <use xlink:href="#DejaVuSans-73" x="640.744141"/>
      <use xlink:href="#DejaVuSans-73" x="692.84375"/>
      <use xlink:href="#DejaVuSans-20" x="744.943359"/>
      <use xlink:href="#DejaVuSans-46" x="776.730469"/>
      <use xlink:href="#DejaVuSans-75" x="828.75"/>
      <use xlink:href="#DejaVuSans-6e" x="892.128906"/>
      <use xlink:href="#DejaVuSans-63" x="955.507812"/>
      <use xlink:href="#DejaVuSans-74" x="1010.488281"/>
      <use xlink:href="#DejaVuSans-69" x="1049.697266"/>
      <use xlink:href="#DejaVuSans-6f" x="1077.480469"/>
      <use xlink:href="#DejaVuSans-6e" x="1138.662109"/>
     </g>
    </g>
   </g>
  </g>
 </g>
 <defs>
  <clipPath id="p409e645027">
   <rect x="33.64" y="32.64" width="531.56" height="353.8"/>
  </clipPath>
 </defs>
</svg>
