<?xml version="1.0" encoding="utf-8"?>
<!-- Generator: Adobe Illustrator 15.1.0, SVG Export Plug-In . SVG Version: 6.00 Build 0)  -->
<!DOCTYPE svg PUBLIC "-//W3C//DTD SVG 1.1//EN" "http://www.w3.org/Graphics/SVG/1.1/DTD/svg11.dtd">
<svg version="1.1" id="Layer_1" xmlns="http://www.w3.org/2000/svg" xmlns:xlink="http://www.w3.org/1999/xlink" x="0px" y="0px"
	 width="239.773px" height="67.691px" viewBox="0 0 239.773 67.691" enable-background="new 0 0 239.773 67.691"
	 xml:space="preserve">
<g>
	<polygon fill="#D5A619" points="42.039,24.321 42.039,38.905 54.664,31.609 	"/>
	<path fill="#C3C5C5" d="M-0.031,63.186l18.363-10.598C13.2,50.874,9.51,47.059,9.446,40.464V18.646h9.44v21.348
		c0.145,4.342,2.414,7.082,6.855,7.082c1.256,0,2.329-0.228,3.239-0.64l0.992-0.572c1.654-1.202,2.527-3.238,2.617-5.87V18.876
		h0.021L-0.031,0.033V63.186L-0.031,63.186z"/>
	<path fill="#D5A619" d="M69.486,49.662c1.843,0,2.952-1.12,2.952-3.894c0-2.784-1.109-3.904-2.952-3.904
		c-1.853,0-2.962,1.12-2.962,3.904C66.523,48.542,67.633,49.662,69.486,49.662L69.486,49.662z M69.486,48.385
		c-0.815,0-1.287-0.607-1.287-2.616c0-2.03,0.471-2.617,1.287-2.617c0.807,0,1.268,0.587,1.268,2.617
		C70.753,47.777,70.292,48.385,69.486,48.385L69.486,48.385z M78.106,43.298v-1.246h-4.26v7.433h1.623v-3.151h2.47v-1.224h-2.47
		v-1.812H78.106L78.106,43.298z M83.036,49.484h1.853l0.764-4.647c0.042-0.313,0.053-0.628,0.063-0.911h0.052
		c0.011,0.283,0.021,0.597,0.063,0.911l0.764,4.647h1.863l1.317-7.433h-1.58l-0.67,4.68c-0.03,0.292-0.053,0.606-0.063,0.91h-0.032
		c-0.031-0.283-0.052-0.565-0.094-0.869l-0.795-4.722H84.94l-0.785,4.722c-0.042,0.303-0.072,0.586-0.094,0.869h-0.042
		c-0.01-0.304-0.032-0.618-0.063-0.91l-0.67-4.68h-1.57L83.036,49.484L83.036,49.484z M92.619,48.259V46.28h2.479v-1.214h-2.479
		v-1.79h2.638v-1.226h-4.26v7.433h4.333v-1.226L92.619,48.259L92.619,48.259z M98.996,49.662c1.633,0,2.573-0.963,2.573-2.313
		c0-1.109-0.448-1.77-1.56-2.146l-1.067-0.354c-0.586-0.199-0.857-0.523-0.857-0.975c0-0.471,0.346-0.785,0.891-0.785
		c0.638,0,1.13,0.408,1.339,1.33l1.319-0.66c-0.304-1.34-1.256-1.884-2.596-1.884c-1.467,0-2.502,0.807-2.502,2.167
		c0,1.047,0.491,1.812,1.549,2.146l1.067,0.334c0.617,0.188,0.815,0.481,0.815,0.983c0,0.514-0.334,0.859-0.91,0.859
		c-0.754,0-1.183-0.461-1.423-1.435l-1.424,0.628C96.557,48.909,97.488,49.662,98.996,49.662L98.996,49.662z M107.699,42.052h-5.202
		v1.329h1.79v6.104h1.622v-6.104h1.79V42.052L107.699,42.052z M115.402,45.58c0.775-0.199,1.185-0.796,1.185-1.549
		c0-1.152-0.724-1.979-2.271-1.979h-2.711v7.433h2.807c1.549,0,2.313-0.869,2.313-2.104C116.721,46.406,116.25,45.768,115.402,45.58
		L115.402,45.58z M113.958,43.172c0.66,0,0.941,0.388,0.941,0.963c0,0.629-0.262,1.026-0.932,1.026h-0.743v-1.989H113.958
		L113.958,43.172z M114.042,48.364h-0.816v-2.156h0.827c0.659,0,0.974,0.387,0.974,1.088
		C115.026,47.945,114.733,48.364,114.042,48.364L114.042,48.364z M120.731,49.662c1.843,0,2.952-1.12,2.952-3.894
		c0-2.784-1.109-3.904-2.952-3.904c-1.853,0-2.962,1.12-2.962,3.904C117.769,48.542,118.878,49.662,120.731,49.662L120.731,49.662z
		 M120.731,48.385c-0.815,0-1.287-0.607-1.287-2.616c0-2.03,0.472-2.617,1.287-2.617c0.808,0,1.268,0.587,1.268,2.617
		C121.998,47.777,121.538,48.385,120.731,48.385L120.731,48.385z M130.451,42.052h-1.622v3.024h-2.114v-3.024h-1.623v7.433h1.623
		v-3.151h2.114v3.151h1.622V42.052L130.451,42.052z M133.777,48.259V46.28h2.481v-1.214h-2.481v-1.79h2.64v-1.226h-4.262v7.433
		h4.333v-1.226L133.777,48.259L133.777,48.259z M137.913,49.484h1.382v-4.407c0-0.45,0-0.994-0.031-1.413h0.042
		c0.01,0.199,0.072,0.565,0.146,0.9l1.172,4.919h1.288l1.141-4.919c0.063-0.335,0.115-0.628,0.146-0.911h0.03
		c-0.021,0.438-0.03,0.984-0.03,1.423v4.407h1.443v-7.433h-2.22l-0.962,4.197c-0.084,0.377-0.137,0.732-0.157,1.004h-0.031
		c-0.021-0.271-0.072-0.617-0.156-0.994l-0.984-4.208h-2.219V49.484L137.913,49.484z M147.965,49.484v-7.433h-1.623v7.433H147.965
		L147.965,49.484z M153.659,49.484h1.633l-2.082-7.433h-1.979l-2.094,7.433h1.634l0.418-1.729h2.053L153.659,49.484L153.659,49.484z
		 M151.471,46.594l0.523-2.188c0.084-0.345,0.156-0.638,0.21-1.068h0.021c0.063,0.431,0.136,0.724,0.21,1.068l0.523,2.188H151.471
		L151.471,46.594z"/>
	<path fill="#D5A619" d="M66.775,28.364v5.223c0,1.466,0.975,2.388,2.648,2.388c1.685,0,2.647-0.922,2.647-2.388v-5.223h-1.611v5.15
		c0,0.7-0.388,1.119-1.036,1.119c-0.649,0-1.026-0.419-1.026-1.119v-5.15H66.775L66.775,28.364z M73.714,35.796h1.497v-3.873
		c0-0.503-0.01-1.047-0.021-1.434h0.021c0.073,0.438,0.167,0.806,0.376,1.245l1.989,4.062h1.633v-7.432h-1.486v3.622
		c0,0.502,0,0.995,0.021,1.487h-0.021c-0.083-0.514-0.188-0.858-0.366-1.235l-1.874-3.873h-1.77L73.714,35.796L73.714,35.796z
		 M82.528,35.796v-7.432h-1.623v7.432H82.528L82.528,35.796z M85.617,35.796h1.968l1.968-7.432h-1.706L86.8,33.179
		c-0.094,0.471-0.146,0.795-0.178,1.13H86.58c-0.031-0.335-0.083-0.659-0.179-1.13l-1.047-4.815h-1.707L85.617,35.796L85.617,35.796
		z M92.307,34.572v-1.979h2.48v-1.214h-2.48v-1.79h2.638v-1.225h-4.261v7.432h4.334v-1.224H92.307L92.307,34.572z M99.98,35.796
		h1.738l-1.34-3.233c0.764-0.305,1.191-0.994,1.191-1.969c0-1.37-0.753-2.229-2.479-2.229h-2.648v7.432h1.623v-2.94h0.816
		L99.98,35.796L99.98,35.796z M98.065,31.798v-2.313h0.785c0.722,0,1.017,0.377,1.017,1.108c0,0.755-0.305,1.204-1.017,1.204H98.065
		L98.065,31.798z M105.184,35.974c1.632,0,2.574-0.964,2.574-2.313c0-1.11-0.45-1.769-1.56-2.146l-1.067-0.356
		c-0.586-0.199-0.858-0.523-0.858-0.974c0-0.472,0.346-0.785,0.891-0.785c0.639,0,1.131,0.408,1.34,1.329l1.317-0.66
		c-0.303-1.34-1.256-1.884-2.595-1.884c-1.466,0-2.503,0.806-2.503,2.167c0,1.047,0.492,1.811,1.55,2.146l1.067,0.335
		c0.617,0.188,0.815,0.482,0.815,0.984c0,0.513-0.335,0.857-0.909,0.857c-0.754,0-1.185-0.46-1.425-1.434l-1.424,0.628
		C102.745,35.219,103.676,35.974,105.184,35.974L105.184,35.974z M110.735,35.796v-7.432h-1.622v7.432H110.735L110.735,35.796z
		 M117.064,28.364h-5.202v1.33h1.789v6.102h1.623v-6.102h1.79V28.364L117.064,28.364z M119.907,35.796h1.633v-2.68l2.021-4.752
		h-1.706l-0.953,2.605c-0.084,0.263-0.126,0.492-0.156,0.765h-0.031c-0.031-0.272-0.084-0.502-0.157-0.765l-0.974-2.605h-1.706
		l2.03,4.752V35.796L119.907,35.796z"/>
	<path fill="#D5A619" d="M71.129,15.922v-1.245h-4.26v7.433h1.622v-3.151h2.47v-1.225h-2.47v-1.812H71.129L71.129,15.922z
		 M76.086,22.108h1.633l-2.083-7.433h-1.979l-2.094,7.433h1.633l0.419-1.728h2.052L76.086,22.108L76.086,22.108z M73.899,19.219
		l0.523-2.188c0.083-0.346,0.157-0.639,0.209-1.068h0.021c0.063,0.43,0.137,0.723,0.209,1.068l0.523,2.188H73.899L73.899,19.219z
		 M81.308,22.286c1.561,0,2.575-0.932,2.7-2.689l-1.603-0.347c-0.072,1.268-0.449,1.729-1.088,1.729
		c-0.806,0-1.246-0.608-1.246-2.597s0.472-2.585,1.235-2.585c0.68,0,1.026,0.377,1.078,1.718l1.612-0.293
		c-0.042-1.822-1.058-2.723-2.681-2.723c-1.778,0-2.909,1.005-2.909,3.895C78.408,21.323,79.423,22.286,81.308,22.286L81.308,22.286
		z M85.309,14.677V19.9c0,1.465,0.974,2.386,2.648,2.386c1.685,0,2.647-0.921,2.647-2.386v-5.224h-1.611v5.149
		c0,0.701-0.388,1.121-1.036,1.121c-0.649,0-1.025-0.419-1.025-1.121v-5.149H85.309L85.309,14.677z M92.249,22.108h4.062v-1.361
		h-2.438v-6.071H92.25L92.249,22.108L92.249,22.108z M101.477,14.677h-5.202v1.329h1.79v6.104h1.623v-6.104h1.789V14.677
		L101.477,14.677z M104.321,22.108h1.634v-2.681l2.021-4.752h-1.706l-0.952,2.606c-0.084,0.262-0.126,0.492-0.156,0.764h-0.031
		c-0.031-0.271-0.084-0.502-0.157-0.764l-0.974-2.606h-1.706l2.029,4.752L104.321,22.108L104.321,22.108z M114.454,22.286
		c1.842,0,2.95-1.12,2.95-3.894c0-2.785-1.108-3.904-2.95-3.904c-1.854,0-2.963,1.12-2.963,3.904
		C111.491,21.166,112.601,22.286,114.454,22.286L114.454,22.286z M114.454,21.009c-0.816,0-1.288-0.606-1.288-2.616
		c0-2.031,0.472-2.617,1.288-2.617c0.806,0,1.266,0.586,1.266,2.617C115.719,20.402,115.259,21.009,114.454,21.009L114.454,21.009z
		 M123.074,15.922v-1.245h-4.262v7.433h1.623v-3.151h2.47v-1.225h-2.47v-1.812H123.074L123.074,15.922z M131.133,22.108h1.633
		l-2.083-7.433h-1.979l-2.094,7.433h1.634l0.418-1.728h2.053L131.133,22.108L131.133,22.108z M128.946,19.219l0.523-2.188
		c0.084-0.346,0.157-0.639,0.209-1.068h0.021c0.063,0.43,0.136,0.723,0.209,1.068l0.522,2.188H128.946L128.946,19.219z
		 M136.645,14.677h-2.688v7.433h1.622v-2.753h1.078c1.518,0,2.406-0.858,2.406-2.366C139.063,15.545,138.173,14.677,136.645,14.677
		L136.645,14.677z M136.352,18.215h-0.773v-2.396h0.773c0.659,0,1.005,0.376,1.005,1.172
		C137.357,17.795,137.001,18.215,136.352,18.215L136.352,18.215z M142.926,14.677h-2.689v7.433h1.622v-2.753h1.078
		c1.519,0,2.407-0.858,2.407-2.366C145.344,15.545,144.455,14.677,142.926,14.677L142.926,14.677z M142.633,18.215h-0.774v-2.396
		h0.774c0.659,0,1.005,0.376,1.005,1.172C143.638,17.795,143.283,18.215,142.633,18.215L142.633,18.215z M146.518,22.108h4.062
		v-1.361h-2.438v-6.071h-1.622L146.518,22.108L146.518,22.108z M153.385,22.108v-7.433h-1.622v7.433H153.385L153.385,22.108z
		 M156.692,20.883v-1.978h2.48v-1.214h-2.48v-1.79h2.639v-1.226h-4.262v7.433h4.334v-1.226H156.692L156.692,20.883z M160.828,22.108
		h2.396c1.938,0,3.13-1.089,3.13-3.728c0-2.605-1.183-3.705-3.108-3.705h-2.417V22.108L160.828,22.108z M162.45,20.926V15.86h0.784
		c0.974,0,1.435,0.669,1.435,2.521c0,1.634-0.492,2.544-1.444,2.544H162.45L162.45,20.926z M172.697,22.286
		c1.634,0,2.574-0.963,2.574-2.313c0-1.109-0.449-1.77-1.559-2.146l-1.068-0.355c-0.586-0.199-0.857-0.523-0.857-0.975
		c0-0.47,0.346-0.785,0.89-0.785c0.639,0,1.131,0.409,1.341,1.33l1.318-0.659c-0.304-1.34-1.256-1.884-2.596-1.884
		c-1.467,0-2.503,0.807-2.503,2.167c0,1.047,0.492,1.812,1.55,2.146l1.067,0.335c0.617,0.188,0.816,0.48,0.816,0.983
		c0,0.514-0.335,0.858-0.911,0.858c-0.754,0-1.183-0.461-1.423-1.434l-1.424,0.628C170.257,21.533,171.189,22.286,172.697,22.286
		L172.697,22.286z M179.194,22.286c1.561,0,2.575-0.932,2.7-2.689l-1.602-0.347c-0.073,1.268-0.449,1.729-1.089,1.729
		c-0.807,0-1.245-0.608-1.245-2.597s0.471-2.585,1.234-2.585c0.682,0,1.025,0.377,1.078,1.718l1.611-0.293
		c-0.041-1.822-1.057-2.723-2.68-2.723c-1.779,0-2.91,1.005-2.91,3.895C176.293,21.323,177.309,22.286,179.194,22.286
		L179.194,22.286z M184.896,22.108v-7.433h-1.622v7.433H184.896L184.896,22.108z M188.203,20.883v-1.978h2.479v-1.214h-2.479v-1.79
		h2.638v-1.226h-4.26v7.433h4.333v-1.226H188.203L188.203,20.883z M192.337,22.108h1.497v-3.873c0-0.503-0.01-1.047-0.021-1.436
		h0.021c0.073,0.439,0.167,0.807,0.377,1.246l1.989,4.063h1.633v-7.433h-1.486v3.622c0,0.502,0,0.995,0.021,1.486h-0.021
		c-0.084-0.513-0.188-0.858-0.366-1.235l-1.874-3.873h-1.77V22.108L192.337,22.108z M202.156,22.286c1.56,0,2.574-0.932,2.7-2.689
		l-1.602-0.347c-0.073,1.268-0.45,1.729-1.089,1.729c-0.807,0-1.245-0.608-1.245-2.597s0.471-2.585,1.233-2.585
		c0.682,0,1.026,0.377,1.078,1.718l1.612-0.293c-0.042-1.822-1.058-2.723-2.68-2.723c-1.779,0-2.91,1.005-2.91,3.895
		C199.256,21.323,200.272,22.286,202.156,22.286L202.156,22.286z M207.864,20.883v-1.978h2.48v-1.214h-2.48v-1.79h2.639v-1.226
		h-4.261v7.433h4.334v-1.226H207.864L207.864,20.883z M214.24,22.286c1.634,0,2.574-0.963,2.574-2.313
		c0-1.109-0.449-1.77-1.56-2.146l-1.067-0.355c-0.586-0.199-0.857-0.523-0.857-0.975c0-0.47,0.345-0.785,0.89-0.785
		c0.639,0,1.131,0.409,1.34,1.33l1.318-0.659c-0.304-1.34-1.256-1.884-2.596-1.884c-1.466,0-2.502,0.807-2.502,2.167
		c0,1.047,0.492,1.812,1.55,2.146l1.066,0.335c0.618,0.188,0.816,0.48,0.816,0.983c0,0.514-0.335,0.858-0.91,0.858
		c-0.754,0-1.184-0.461-1.424-1.434l-1.424,0.628C211.801,21.533,212.733,22.286,214.24,22.286L214.24,22.286z"/>
</g>
</svg>
